<svg width="20" height="20" viewBox="0 0 20 20" fill="none" xmlns="http://www.w3.org/2000/svg">
<g clip-path="url(#clip0_7316_1108)">
<path d="M20 10.0605C20 15.0513 16.3383 19.1888 11.5583 19.9397V12.9705H13.8825L14.325 10.0872H11.5583V8.21632C11.5583 7.42715 11.945 6.65882 13.1833 6.65882H14.4408V4.20382C14.4408 4.20382 13.2992 4.00882 12.2083 4.00882C9.93 4.00882 8.44167 5.38965 8.44167 7.88882V10.0863H5.90917V12.9697H8.44167V19.9388C3.6625 19.1872 0 15.0505 0 10.0605C0 4.53799 4.4775 0.0604858 10 0.0604858C15.5225 0.0604858 20 4.53715 20 10.0605Z" fill="white"/>
</g>
<defs>
<clipPath id="clip0_7316_1108">
<rect width="20" height="20" fill="white"/>
</clipPath>
</defs>
</svg>
