<svg width="20" height="20" viewBox="0 0 20 20" fill="none" xmlns="http://www.w3.org/2000/svg">
<g clip-path="url(#clip0_7316_1097)">
<path d="M10 1.80167C12.67 1.80167 12.9867 1.81167 14.0408 1.86C15.1308 1.91 16.2533 2.15833 17.0475 2.9525C17.8492 3.75417 18.09 4.86583 18.14 5.95917C18.1883 7.01333 18.1983 7.33 18.1983 10C18.1983 12.67 18.1883 12.9867 18.14 14.0408C18.0908 15.125 17.8367 16.2583 17.0475 17.0475C16.2458 17.8492 15.135 18.09 14.0408 18.14C12.9867 18.1883 12.67 18.1983 10 18.1983C7.33 18.1983 7.01333 18.1883 5.95917 18.14C4.88333 18.0908 3.735 17.8308 2.9525 17.0475C2.155 16.25 1.91 15.1275 1.86 14.0408C1.81167 12.9867 1.80167 12.67 1.80167 10C1.80167 7.33 1.81167 7.01333 1.86 5.95917C1.90917 4.87917 2.16583 3.73917 2.9525 2.9525C3.7525 2.1525 4.86833 1.91 5.95917 1.86C7.01333 1.81167 7.33 1.80167 10 1.80167ZM10 0C7.28417 0 6.94333 0.0116667 5.87667 0.06C4.33083 0.130833 2.79583 0.560833 1.67833 1.67833C0.556667 2.8 0.130833 4.33167 0.06 5.87667C0.0116667 6.94333 0 7.28417 0 10C0 12.7158 0.0116667 13.0567 0.06 14.1233C0.130833 15.6675 0.5625 17.2067 1.67833 18.3217C2.79917 19.4425 4.33333 19.8692 5.87667 19.94C6.94333 19.9883 7.28417 20 10 20C12.7158 20 13.0567 19.9883 14.1233 19.94C15.6683 19.8692 17.205 19.4383 18.3217 18.3217C19.4442 17.1992 19.8692 15.6683 19.94 14.1233C19.9883 13.0567 20 12.7158 20 10C20 7.28417 19.9883 6.94333 19.94 5.87667C19.8692 4.33083 19.4383 2.795 18.3217 1.67833C17.2025 0.559167 15.6642 0.13 14.1233 0.06C13.0567 0.0116667 12.7158 0 10 0Z" fill="white"/>
<path d="M10.0022 4.86523C7.16635 4.86523 4.86719 7.1644 4.86719 10.0002C4.86719 12.8361 7.16635 15.1352 10.0022 15.1352C12.838 15.1352 15.1372 12.8361 15.1372 10.0002C15.1372 7.1644 12.838 4.86523 10.0022 4.86523ZM10.0022 13.3336C8.16135 13.3336 6.66885 11.8411 6.66885 10.0002C6.66885 8.1594 8.16135 6.6669 10.0022 6.6669C11.843 6.6669 13.3355 8.1594 13.3355 10.0002C13.3355 11.8411 11.843 13.3336 10.0022 13.3336Z" fill="white"/>
<path d="M15.3406 5.86191C16.0034 5.86191 16.5406 5.32466 16.5406 4.66191C16.5406 3.99917 16.0034 3.46191 15.3406 3.46191C14.6779 3.46191 14.1406 3.99917 14.1406 4.66191C14.1406 5.32466 14.6779 5.86191 15.3406 5.86191Z" fill="white"/>
</g>
<defs>
<clipPath id="clip0_7316_1097">
<rect width="20" height="20" fill="white"/>
</clipPath>
</defs>
</svg>
