<svg width="53" height="54" viewBox="0 0 53 54" fill="none" xmlns="http://www.w3.org/2000/svg">
<g filter="url(#filter0_i_7301_698)">
<rect x="18.4609" y="2.85449" width="32.906" height="31.9658" rx="7" fill="white" fill-opacity="0.3"/>
</g>
<foreignObject x="0" y="-6.04987e-05" width="52.9062" height="53.6069"><div xmlns="http://www.w3.org/1999/xhtml" style="backdrop-filter:blur(2.82px);clip-path:url(#bgblur_0_7301_698_clip_path);height:100%;width:100%"></div></foreignObject><g filter="url(#filter1_di_7301_698)" data-figma-bg-blur-radius="5.64103">
<path d="M10 20.4478C10 16.5274 10 14.5673 10.763 13.0699C11.4341 11.7527 12.5049 10.6819 13.8221 10.0108C15.3194 9.2478 17.2796 9.2478 21.2 9.2478H31.706C35.6264 9.2478 37.5865 9.2478 39.0839 10.0108C40.4011 10.6819 41.4719 11.7527 42.143 13.0699C42.906 14.5673 42.906 16.5274 42.906 20.4478V31.6546C42.906 35.575 42.906 37.5352 42.143 39.0326C41.4719 40.3497 40.4011 41.4206 39.0839 42.0917C37.5865 42.8546 35.6264 42.8546 31.706 42.8546H26.4102H21.2C17.2796 42.8546 15.3194 42.8546 13.8221 42.0917C12.5049 41.4206 11.4341 40.3497 10.763 39.0326C10 37.5352 10 35.575 10 31.6546V20.4478Z" fill="white" fill-opacity="0.2" shape-rendering="crispEdges"/>
</g>
<g filter="url(#filter2_d_7301_698)">
<rect x="14.3047" y="15.7776" width="14.359" height="2.46154" rx="1.23077" fill="white"/>
<rect x="14.3047" y="26.4443" width="12.1026" height="2.46154" rx="1.23077" fill="white"/>
<rect x="14.3047" y="21.1108" width="19.0769" height="2.46154" rx="1.23077" fill="white"/>
</g>
<defs>
<filter id="filter0_i_7301_698" x="18.4609" y="2.85449" width="32.9062" height="32.718" filterUnits="userSpaceOnUse" color-interpolation-filters="sRGB">
<feFlood flood-opacity="0" result="BackgroundImageFix"/>
<feBlend mode="normal" in="SourceGraphic" in2="BackgroundImageFix" result="shape"/>
<feColorMatrix in="SourceAlpha" type="matrix" values="0 0 0 0 0 0 0 0 0 0 0 0 0 0 0 0 0 0 127 0" result="hardAlpha"/>
<feOffset dy="0.752137"/>
<feGaussianBlur stdDeviation="0.376068"/>
<feComposite in2="hardAlpha" operator="arithmetic" k2="-1" k3="1"/>
<feColorMatrix type="matrix" values="0 0 0 0 1 0 0 0 0 1 0 0 0 0 1 0 0 0 0.25 0"/>
<feBlend mode="normal" in2="shape" result="effect1_innerShadow_7301_698"/>
</filter>
<filter id="filter1_di_7301_698" x="0" y="-6.04987e-05" width="52.9062" height="53.6069" filterUnits="userSpaceOnUse" color-interpolation-filters="sRGB">
<feFlood flood-opacity="0" result="BackgroundImageFix"/>
<feColorMatrix in="SourceAlpha" type="matrix" values="0 0 0 0 0 0 0 0 0 0 0 0 0 0 0 0 0 0 127 0" result="hardAlpha"/>
<feOffset dy="0.752137"/>
<feGaussianBlur stdDeviation="5"/>
<feComposite in2="hardAlpha" operator="out"/>
<feColorMatrix type="matrix" values="0 0 0 0 0.18223 0 0 0 0 0.35223 0 0 0 0 0.947228 0 0 0 0.2 0"/>
<feBlend mode="normal" in2="BackgroundImageFix" result="effect1_dropShadow_7301_698"/>
<feBlend mode="normal" in="SourceGraphic" in2="effect1_dropShadow_7301_698" result="shape"/>
<feColorMatrix in="SourceAlpha" type="matrix" values="0 0 0 0 0 0 0 0 0 0 0 0 0 0 0 0 0 0 127 0" result="hardAlpha"/>
<feOffset dy="0.752137"/>
<feGaussianBlur stdDeviation="0.376068"/>
<feComposite in2="hardAlpha" operator="arithmetic" k2="-1" k3="1"/>
<feColorMatrix type="matrix" values="0 0 0 0 1 0 0 0 0 1 0 0 0 0 1 0 0 0 0.25 0"/>
<feBlend mode="normal" in2="shape" result="effect2_innerShadow_7301_698"/>
</filter>
<clipPath id="bgblur_0_7301_698_clip_path" transform="translate(0 6.04987e-05)"><path d="M10 20.4478C10 16.5274 10 14.5673 10.763 13.0699C11.4341 11.7527 12.5049 10.6819 13.8221 10.0108C15.3194 9.2478 17.2796 9.2478 21.2 9.2478H31.706C35.6264 9.2478 37.5865 9.2478 39.0839 10.0108C40.4011 10.6819 41.4719 11.7527 42.143 13.0699C42.906 14.5673 42.906 16.5274 42.906 20.4478V31.6546C42.906 35.575 42.906 37.5352 42.143 39.0326C41.4719 40.3497 40.4011 41.4206 39.0839 42.0917C37.5865 42.8546 35.6264 42.8546 31.706 42.8546H26.4102H21.2C17.2796 42.8546 15.3194 42.8546 13.8221 42.0917C12.5049 41.4206 11.4341 40.3497 10.763 39.0326C10 37.5352 10 35.575 10 31.6546V20.4478Z"/>
</clipPath><filter id="filter2_d_7301_698" x="11.9233" y="14.3682" width="23.8409" height="17.8909" filterUnits="userSpaceOnUse" color-interpolation-filters="sRGB">
<feFlood flood-opacity="0" result="BackgroundImageFix"/>
<feColorMatrix in="SourceAlpha" type="matrix" values="0 0 0 0 0 0 0 0 0 0 0 0 0 0 0 0 0 0 127 0" result="hardAlpha"/>
<feOffset dy="0.971992"/>
<feGaussianBlur stdDeviation="1.19069"/>
<feComposite in2="hardAlpha" operator="out"/>
<feColorMatrix type="matrix" values="0 0 0 0 0 0 0 0 0 0 0 0 0 0 0 0 0 0 0.13 0"/>
<feBlend mode="normal" in2="BackgroundImageFix" result="effect1_dropShadow_7301_698"/>
<feBlend mode="normal" in="SourceGraphic" in2="effect1_dropShadow_7301_698" result="shape"/>
</filter>
</defs>
</svg>
