<svg width="20" height="20" viewBox="0 0 20 20" fill="none" xmlns="http://www.w3.org/2000/svg">
<path d="M1.625 6.625H17.625M1.625 12.625H17.625M8.625 0.625C7.31795 3.32461 6.625 6.44287 6.625 9.625C6.625 12.8071 7.31795 15.9254 8.625 18.625M10.625 0.625C11.9321 3.32461 12.625 6.44287 12.625 9.625C12.625 12.8071 11.9321 15.9254 10.625 18.625M0.625 9.625C0.625 10.8069 0.857792 11.9772 1.31008 13.0692C1.76238 14.1611 2.42531 15.1532 3.26104 15.989C4.09677 16.8247 5.08892 17.4876 6.18085 17.9399C7.27278 18.3922 8.4431 18.625 9.625 18.625C10.8069 18.625 11.9772 18.3922 13.0692 17.9399C14.1611 17.4876 15.1532 16.8247 15.989 15.989C16.8247 15.1532 17.4876 14.1611 17.9399 13.0692C18.3922 11.9772 18.625 10.8069 18.625 9.625C18.625 7.23805 17.6768 4.94887 15.989 3.26104C14.3011 1.57321 12.0119 0.625 9.625 0.625C7.23805 0.625 4.94887 1.57321 3.26104 3.26104C1.57321 4.94887 0.625 7.23805 0.625 9.625Z" stroke="#1D1D1D" stroke-width="1.25" stroke-linecap="round" stroke-linejoin="round"/>
</svg>
