<svg width="20" height="20" viewBox="0 0 20 20" fill="none" xmlns="http://www.w3.org/2000/svg">
<path d="M17.0413 17.0421H14.0778V12.4009C14.0778 11.2941 14.0581 9.86991 12.5363 9.86991C10.993 9.86991 10.7564 11.0753 10.7564 12.3211V17.0421H7.79382V7.49758H10.6391V8.80152H10.6786C11.2591 7.81001 12.3373 7.21767 13.4854 7.26005C16.4894 7.26005 17.0423 9.23617 17.0423 11.8056L17.0413 17.0421ZM4.44981 6.19265C3.49973 6.19265 2.73001 5.42289 2.73001 4.47278C2.73001 3.52266 3.49973 2.75291 4.44981 2.75291C5.39989 2.75291 6.16962 3.52266 6.16962 4.47278C6.16962 5.42289 5.39989 6.19265 4.44981 6.19265ZM5.93111 17.0421H2.96457V7.49758H5.93111V17.0421ZM18.5187 0.00112022H1.47539C0.670182 -0.00775016 0.00985561 0.637817 0 1.44305V18.557C0.00985561 19.3632 0.670182 20.0088 1.47539 19.9999H18.5187C19.3259 20.0097 19.9892 19.3642 20 18.557V1.44206C19.9882 0.63486 19.3249 -0.010707 18.5187 0.000134579" fill="white"/>
</svg>
