<svg width="36" height="36" viewBox="0 0 36 36" fill="none" xmlns="http://www.w3.org/2000/svg">
<rect width="36" height="36" rx="18" fill="#7C59F2"/>
<path d="M28.3935 12.5691V12.5425C28.1521 11.5648 27.5221 10.5544 26.6958 9.70344C25.7303 8.70526 24.501 7.92185 23.3269 7.66822H23.3023C19.801 6.99731 16.2041 6.99731 12.7028 7.66822H12.6783C10.4978 8.14072 8.13121 10.4194 7.60348 12.5425V12.5691C6.95509 15.5127 6.95509 18.5621 7.60348 21.5057V21.5303C7.97984 23.0439 9.28894 24.6353 10.7985 25.5966C11.2915 25.9179 11.8281 26.1666 12.3919 26.335V28.7037C12.3927 28.893 12.4498 29.0777 12.556 29.2344C12.6622 29.3911 12.8127 29.5127 12.9882 29.5835C13.1637 29.6544 13.3564 29.6714 13.5416 29.6324C13.7268 29.5933 13.8963 29.5 14.0283 29.3644L16.4296 26.8689C16.9492 26.8975 17.4728 26.9139 17.9923 26.9139C19.7708 26.9133 21.5453 26.7449 23.2921 26.4107H23.3167C25.491 25.9362 27.8596 23.6575 28.3833 21.5344V21.5098C29.0356 18.5657 29.0391 15.5148 28.3935 12.5691ZM26.4933 21.068C26.1414 22.4528 24.3455 24.1771 22.9158 24.4941C21.0587 24.8499 19.1687 25.0042 17.2785 24.9544C17.2601 24.9532 17.2417 24.9563 17.2246 24.9634C17.2076 24.9705 17.1925 24.9814 17.1803 24.9953L15.4273 26.7953L13.5619 28.7078C13.532 28.7393 13.4934 28.7612 13.451 28.7705C13.4086 28.7798 13.3644 28.7762 13.3241 28.7601C13.2837 28.7441 13.2492 28.7162 13.2248 28.6803C13.2005 28.6443 13.1875 28.6019 13.1876 28.5584V24.6312C13.1876 24.5996 13.1766 24.569 13.1564 24.5447C13.1362 24.5204 13.1082 24.504 13.0771 24.4982C12.7789 24.4274 12.4914 24.3174 12.2221 24.1709C11.0071 23.5225 9.78189 22.193 9.49962 21.068C8.91494 18.4072 8.91494 15.6512 9.49962 12.9905C9.84939 11.6119 11.6555 9.89163 13.0751 9.57253C16.3258 8.95054 19.665 8.95054 22.9158 9.57253C23.7033 9.74844 24.6033 10.3478 25.3069 11.0841C25.8858 11.6834 26.3296 12.3748 26.4933 12.9966C27.077 15.6554 27.077 18.4092 26.4933 21.068Z" fill="white"/>
<path d="M22.9698 21.272C22.7041 21.8785 22.2472 22.3814 21.6689 22.7039C21.4875 22.7809 21.2991 22.8404 21.1064 22.8818C20.8876 22.8164 20.6789 22.7714 20.4928 22.6916C18.9423 22.0882 17.4988 21.2394 16.2178 20.1777C15.8373 19.8532 15.4798 19.5026 15.148 19.1284C14.3287 18.1849 13.6406 17.1349 13.1026 16.007C12.8407 15.4732 12.6198 14.9209 12.3948 14.3707C12.1903 13.8695 12.493 13.3479 12.8039 12.9736C13.1083 12.6265 13.4826 12.3477 13.9023 12.1554C14.05 12.0812 14.2191 12.061 14.3801 12.0984C14.5411 12.1358 14.684 12.2283 14.7839 12.36C15.3065 12.9472 15.7672 13.5867 16.1585 14.2684C16.2817 14.4666 16.324 14.7047 16.2764 14.9332C16.2287 15.1618 16.095 15.3632 15.9028 15.4957C15.8005 15.5673 15.6982 15.6491 15.6103 15.7289C15.5236 15.7931 15.4488 15.872 15.3894 15.962C15.3381 16.0463 15.307 16.1413 15.2985 16.2396C15.29 16.3379 15.3043 16.4368 15.3403 16.5286C15.7351 17.6148 16.3344 18.5209 17.2303 19.157C17.5335 19.3714 17.8601 19.5505 18.2039 19.6909C18.4284 19.813 18.6807 19.875 18.9362 19.8709C19.3821 19.8177 19.5294 19.3248 19.8403 19.0711C19.983 18.9543 20.1596 18.8866 20.3439 18.8781C20.5281 18.8696 20.7102 18.9208 20.863 19.0241C21.1944 19.2286 21.5135 19.4598 21.8326 19.6848C22.1482 19.9002 22.452 20.1323 22.7428 20.3802C22.8788 20.479 22.9759 20.6222 23.0174 20.7851C23.0589 20.948 23.042 21.1203 22.9698 21.272Z" fill="white"/>
<path d="M18.5821 11.4706H18.3203C18.4042 11.4665 18.4921 11.4706 18.5821 11.4706Z" fill="white"/>
<path d="M23.1121 17.6009C22.9075 17.6009 22.8073 17.427 22.793 17.2368C22.7664 16.8624 22.746 16.4861 22.6948 16.1138C22.6064 15.4857 22.3876 14.883 22.0525 14.3445C21.7081 13.7835 21.2498 13.301 20.7072 12.9282C20.1646 12.5554 19.5498 12.3007 18.9025 12.1804C18.608 12.1272 18.3073 12.1149 18.0107 12.0843C17.8225 12.0638 17.575 12.0515 17.5341 11.8184C17.528 11.7731 17.5316 11.727 17.5448 11.6832C17.5579 11.6394 17.5802 11.599 17.6102 11.5645C17.6402 11.53 17.6772 11.5024 17.7188 11.4834C17.7603 11.4644 17.8055 11.4544 17.8512 11.4543C17.9002 11.4514 17.9494 11.4514 17.9985 11.4543C18.8925 11.4618 19.7709 11.6898 20.5559 12.1179C21.3408 12.5461 22.008 13.1612 22.4985 13.9088C22.8856 14.5114 23.1485 15.1853 23.2716 15.8909C23.3494 16.3327 23.378 16.7868 23.4128 17.2368C23.4198 17.2809 23.4173 17.326 23.4055 17.369C23.3938 17.4121 23.373 17.4522 23.3445 17.4866C23.3161 17.521 23.2807 17.549 23.2406 17.5687C23.2005 17.5884 23.1567 17.5994 23.1121 17.6009Z" fill="white"/>
<path d="M22.0024 16.6454C22.0013 16.7062 21.9931 16.7666 21.9779 16.8254C21.96 16.8846 21.9244 16.9368 21.8758 16.9749C21.8272 17.0131 21.7681 17.0354 21.7064 17.0387C21.6447 17.0421 21.5835 17.0264 21.531 16.9937C21.4786 16.961 21.4375 16.913 21.4134 16.8561C21.3908 16.7735 21.3805 16.6881 21.3827 16.6025C21.3874 16.145 21.2969 15.6915 21.1168 15.2709C21.0759 15.1809 21.0309 15.0889 20.9797 15.0009C20.6869 14.4962 20.2523 14.0887 19.7299 13.8289C19.4148 13.68 19.0801 13.5767 18.7359 13.522C18.5845 13.4975 18.4331 13.4832 18.2818 13.4627C18.2424 13.4607 18.2038 13.4507 18.1684 13.4332C18.1331 13.4157 18.1017 13.3912 18.0762 13.3611C18.0507 13.331 18.0316 13.296 18.0202 13.2582C18.0088 13.2205 18.0052 13.1808 18.0097 13.1416C18.0097 13.1015 18.0182 13.0619 18.0347 13.0253C18.0511 12.9887 18.075 12.956 18.105 12.9294C18.1349 12.9027 18.1702 12.8827 18.2084 12.8706C18.2466 12.8586 18.2869 12.8547 18.3268 12.8593C18.9274 12.8825 19.5157 13.036 20.0511 13.3093C20.7048 13.6383 21.2381 14.1651 21.5749 14.8148C21.7647 15.1941 21.8918 15.6016 21.9513 16.0216C21.9623 16.0764 21.9705 16.1317 21.9759 16.1873C21.9861 16.31 21.9902 16.4327 22.0004 16.5841C22.0004 16.5984 22.0024 16.6168 22.0024 16.6454Z" fill="white"/>
<path d="M20.6051 16.3628C20.5935 16.4146 20.5667 16.4618 20.528 16.4983C20.4894 16.5347 20.4407 16.5588 20.3883 16.5673H20.3433C20.2763 16.5716 20.2097 16.554 20.1536 16.5171C20.0975 16.4802 20.0549 16.426 20.0324 16.3628C20.0197 16.3292 20.0114 16.2941 20.0078 16.2584C19.9971 16.1208 19.9766 15.9841 19.9465 15.8494C19.8857 15.5766 19.7307 15.334 19.5087 15.1641C19.4014 15.0871 19.2818 15.029 19.1549 14.9923C18.9933 14.9453 18.8235 14.9575 18.664 14.9187C18.5851 14.9047 18.515 14.86 18.469 14.7945C18.423 14.7289 18.4048 14.6478 18.4185 14.5689C18.4337 14.4933 18.476 14.4259 18.5374 14.3792C18.5987 14.3325 18.675 14.3098 18.7519 14.3153C19.6887 14.3828 20.3883 14.8328 20.5683 15.8371C20.5868 15.9303 20.5998 16.0246 20.6071 16.1194C20.6186 16.2001 20.6179 16.2822 20.6051 16.3628Z" fill="white"/>
</svg>
